<svg xmlns="http://www.w3.org/2000/svg" viewBox="0 0 96 96" role="img" aria-label="Vocabulary Test">
  <defs>
    <linearGradient id="vocabGlow" x1="0" x2="1" y1="0" y2="1">
      <stop offset="0%" stop-color="#f8efe0"/>
      <stop offset="55%" stop-color="#e7c8ab"/>
      <stop offset="100%" stop-color="#c9724e"/>
    </linearGradient>
  </defs>
  <rect width="96" height="96" rx="18" fill="url(#vocabGlow)"/>
  <rect x="20" y="20" width="56" height="56" rx="12" fill="#ffffff" opacity="0.85"/>
  <path d="M32 34h20a10 10 0 0 1 10 10v20H42a10 10 0 0 1-10-10V34z" fill="#3f5b4f"/>
  <path d="M52 34h8a10 10 0 0 1 10 10v20h-8a10 10 0 0 1-10-10V34z" fill="#c9724e"/>
  <path d="M36 40h12M36 48h10M36 56h14" stroke="#f6f0e7" stroke-width="4" stroke-linecap="round"/>
</svg>
